# xmcd
#
# Track frame offsets:
#	150
#	13225
#	27375
#	41650
#	57677
#	72040
#	85890
#	100110
#	114110
#	130092
#
# Disc length: 1901 seconds
#
# Revision: 0
# Processed by: cddbd v1.4PL0 Copyright (c) Steve Scherf et al.
# Submitted via: dBpowerAMP V4.0
#
DISCID=80076b0a
DTITLE=Chris Chitsey - Chris Chitsy
DYEAR=1999
DGENRE=Country
TTITLE0=With A Body Like That
TTITLE1=Change Of Heart
TTITLE2=John Wayne Rides Again
TTITLE3=Copano Bay
TTITLE4=At A Time Like That
TTITLE5=Lady Law Down
TTITLE6=By George
TTITLE7=Knights At The Round Table
TTITLE8=After All These Years
TTITLE9=A Woman Like Me
EXTD=Premier Nashville Records
EXTT0=
EXTT1=
EXTT2=
EXTT3=
EXTT4=
EXTT5=
EXTT6=
EXTT7=
EXTT8=
EXTT9=
PLAYORDER=
